# xmcd CD database file
#
# Track frame offsets:
#	150
#	22793
#	41905
#	59255
#	82669
#	98446
#	112962
#	132677
#	149374
#	167419
#	182785
#
# Disc length: 2632 seconds
#
# Revision: 0
# Processed by: cddbd v1.5.1PL2 Copyright (c) Steve Scherf et al.
# Submitted via: CDex 1.51
#
DISCID=850a460b
DTITLE=Kuhaut's Blues Kapelle - Kuhaut's Blues Kapelle
DYEAR=1900
DGENRE=Blues
TTITLE0=Poor man blues
TTITLE1=Take all my blues
TTITLE2=Route 66
TTITLE3=Need your love
TTITLE4=5 to 99
TTITLE5=Take me to the river
TTITLE6=Fine brown frame
TTITLE7=Daydreams
TTITLE8=Talk to your daughter
TTITLE9=Caledonia
TTITLE10=Pic's gospel groove
EXTD=
EXTT0=
EXTT1=
EXTT2=
EXTT3=
EXTT4=
EXTT5=
EXTT6=
EXTT7=
EXTT8=
EXTT9=
EXTT10=
PLAYORDER=
